<svg width="486" height="66" viewBox="0 0 486 66" fill="none" xmlns="http://www.w3.org/2000/svg">
<path d="M4.512 44.448C2.368 44.448 1.296 44.896 1.296 45.792C1.296 46.688 2.112 47.552 3.744 48.384C5.408 49.248 7.52 49.68 10.08 49.68C12.672 49.68 15.488 48.944 18.528 47.472C17.728 47.28 16.24 46.864 14.064 46.224C9.872 45.04 6.688 44.448 4.512 44.448ZM23.76 25.056C23.76 26.912 25.2 27.84 28.08 27.84C29.552 27.84 31.216 27.424 33.072 26.592C34.928 25.76 36.688 24.672 38.352 23.328C40.016 21.984 41.408 20.304 42.528 18.288C43.68 16.272 44.256 14.208 44.256 12.096C44.256 11.424 44.176 10.768 44.016 10.128C41.52 10.512 38.992 11.296 36.432 12.48C33.904 13.664 31.728 14.992 29.904 16.464C28.112 17.936 26.64 19.456 25.488 21.024C24.336 22.592 23.76 23.936 23.76 25.056ZM22.176 47.232C24.16 47.616 25.856 47.808 27.264 47.808C30.144 47.808 33.024 47.376 35.904 46.512C38.816 45.648 41.472 44.496 43.872 43.056C46.272 41.584 48.512 39.888 50.592 37.968C52.704 36.048 54.48 34.064 55.92 32.016C59.024 27.536 60.576 23.44 60.576 19.728C60.576 17.744 60.096 16 59.136 14.496C55.584 17.216 49.856 22.768 41.952 31.152C39.232 34 36.048 36.96 32.4 40.032C28.784 43.104 25.376 45.504 22.176 47.232ZM36.096 4.896C32.8 4.896 29.072 5.776 24.912 7.536C20.752 9.296 17.616 11.232 15.504 13.344L14.88 12.96C17.792 10.464 21.296 8.368 25.392 6.672C29.488 4.976 33.2 4.128 36.528 4.128C41.072 4.128 43.824 5.776 44.784 9.072C45.808 8.976 46.832 8.928 47.856 8.928C52.848 8.928 56.608 10.32 59.136 13.104C63.136 10.64 66.816 9.408 70.176 9.408C72.192 9.408 73.776 9.856 74.928 10.752C76.08 11.648 76.656 12.768 76.656 14.112C76.656 15.424 76.128 16.72 75.072 18C74.048 19.28 72.528 20.384 70.512 21.312L70.416 20.784C72.016 20.144 73.296 19.2 74.256 17.952C75.248 16.704 75.744 15.472 75.744 14.256C75.744 13.008 75.216 12 74.16 11.232C73.136 10.432 71.584 10.032 69.504 10.032C66.624 10.032 63.408 11.344 59.856 13.968C61.264 15.952 61.968 18.224 61.968 20.784C61.968 23.344 61.456 25.888 60.432 28.416C59.44 30.944 57.92 33.408 55.872 35.808C53.824 38.208 51.408 40.368 48.624 42.288C45.84 44.176 42.496 45.696 38.592 46.848C34.72 48.032 30.624 48.624 26.304 48.624C24.544 48.624 22.672 48.416 20.688 48C16.56 49.984 12.528 50.976 8.592 50.976C6.224 50.976 4.192 50.448 2.496 49.392C0.832001 48.368 1.33365e-06 47.296 1.33365e-06 46.176C1.33365e-06 45.44 0.400001 44.848 1.2 44.4C2.032 43.952 3.232 43.728 4.8 43.728C6.368 43.728 7.92 43.872 9.456 44.16C10.992 44.448 12.96 44.928 15.36 45.6C17.792 46.24 19.328 46.64 19.968 46.8C22.912 45.2 26.16 42.848 29.712 39.744C33.296 36.64 36.496 33.6 39.312 30.624C42.16 27.648 45.36 24.512 48.912 21.216C52.464 17.92 55.616 15.376 58.368 13.584C56.128 11.088 52.448 9.84 47.328 9.84C46.528 9.84 45.744 9.888 44.976 9.984C45.072 10.464 45.12 10.992 45.12 11.568C45.12 13.904 44.512 16.176 43.296 18.384C42.08 20.592 40.576 22.448 38.784 23.952C36.992 25.456 35.088 26.656 33.072 27.552C31.088 28.448 29.328 28.896 27.792 28.896C26.256 28.896 25.104 28.528 24.336 27.792C23.568 27.024 23.184 25.984 23.184 24.672C23.184 23.328 23.632 21.856 24.528 20.256C25.456 18.624 26.736 17.04 28.368 15.504C30.032 13.968 32.208 12.624 34.896 11.472C37.616 10.288 40.576 9.52 43.776 9.168C42.752 6.32 40.192 4.896 36.096 4.896ZM61.7835 39.984L64.0395 39.696C64.4235 39.696 64.7275 39.824 64.9515 40.08C65.1755 40.336 65.2875 40.64 65.2875 40.992C65.2875 41.696 64.7915 42.464 63.7995 43.296C62.8075 44.128 61.8155 44.912 60.8235 45.648C59.8635 46.384 59.3835 46.976 59.3835 47.424C59.3835 47.68 59.5915 47.808 60.0075 47.808C61.3835 47.808 63.4795 47.008 66.2955 45.408C67.5115 44.736 68.8075 43.92 70.1835 42.96L70.2795 43.68C69.1915 44.384 67.9755 45.104 66.6315 45.84C65.8635 46.32 64.7435 46.864 63.2715 47.472C61.7995 48.112 60.5835 48.432 59.6235 48.432C58.6635 48.432 58.1835 48 58.1835 47.136C58.1835 46.144 58.6955 45.216 59.7195 44.352C60.7435 43.456 61.7515 42.72 62.7435 42.144C63.7675 41.536 64.2795 41.072 64.2795 40.752C64.2795 40.656 64.1675 40.608 63.9435 40.608L61.2555 40.848C60.7435 40.848 60.2795 40.8 59.8635 40.704C58.3275 41.792 56.7115 42.864 55.0155 43.92L54.8715 43.248L59.4315 40.08C59.4635 39.472 59.8475 38.864 60.5835 38.256C61.3195 37.648 61.9435 37.344 62.4555 37.344C62.9675 37.344 63.2235 37.488 63.2235 37.776C63.2235 38.032 62.9195 38.368 62.3115 38.784C61.7035 39.2 61.3995 39.504 61.3995 39.696C61.3995 39.888 61.5275 39.984 61.7835 39.984ZM101.862 29.856C99.6536 29.856 97.6376 30.448 95.8136 31.632C94.0216 32.816 92.5816 34.336 91.4936 36.192C93.7016 35.808 95.9736 35.616 98.3096 35.616C100.678 35.616 102.854 35.824 104.838 36.24C105.51 34.96 105.846 33.84 105.846 32.88C105.846 30.864 104.518 29.856 101.862 29.856ZM79.0136 44.832C79.0136 45.792 79.5256 46.56 80.5496 47.136C81.6056 47.744 83.1096 48.048 85.0616 48.048C87.0456 48.048 89.0776 47.712 91.1576 47.04C89.7816 45.856 89.0936 44.288 89.0936 42.336C89.0936 40.384 89.5096 38.576 90.3416 36.912C86.9176 37.68 84.1656 38.832 82.0856 40.368C80.0376 41.904 79.0136 43.392 79.0136 44.832ZM97.5896 48.384C102.806 48.384 107.846 46.144 112.71 41.664C111.27 39.712 109.014 38.24 105.942 37.248C104.79 39.296 103.062 41.248 100.758 43.104C98.4536 44.928 95.8136 46.32 92.8376 47.28C94.0856 48.016 95.6696 48.384 97.5896 48.384ZM91.2056 36.72C90.3096 38.448 89.8616 40.272 89.8616 42.192C89.8616 44.112 90.5816 45.648 92.0216 46.8C94.7096 45.808 97.1736 44.384 99.4136 42.528C101.654 40.672 103.35 38.768 104.502 36.816C102.422 36.336 100.246 36.096 97.9736 36.096C95.7016 36.096 93.4456 36.304 91.2056 36.72ZM139.686 13.584C138.694 14.352 137.83 15.056 137.094 15.696C136.39 16.336 135.478 17.344 134.358 18.72C133.238 20.096 132.374 21.168 131.766 21.936C131.19 22.704 130.246 23.984 128.934 25.776C127.654 27.536 126.742 28.784 126.198 29.52C129.782 28.688 133.302 27.216 136.758 25.104C140.246 22.96 142.982 20.8 144.966 18.624C146.982 16.416 147.99 14.624 147.99 13.248C147.99 12.064 147.062 11.472 145.206 11.472C143.35 11.472 141.51 12.176 139.686 13.584ZM120.39 30.24C121.35 30.24 122.086 30.208 122.598 30.144C126.694 24.544 129.686 20.736 131.574 18.72C136.342 13.536 141.078 10.944 145.782 10.944C147.702 10.944 148.662 11.664 148.662 13.104C148.662 14.256 148.038 15.68 146.79 17.376C145.574 19.04 143.958 20.72 141.942 22.416C139.958 24.112 137.494 25.696 134.55 27.168C131.638 28.608 128.678 29.632 125.67 30.24C121.734 35.52 118.086 39.536 114.726 42.288C115.558 43.568 115.974 44.896 115.974 46.272C115.974 48.736 114.662 50.976 112.038 52.992C109.446 55.04 105.606 56.448 100.518 57.216V56.688C104.966 55.984 108.374 54.64 110.742 52.656C113.11 50.704 114.294 48.528 114.294 46.128C114.294 45.136 114.07 44.144 113.622 43.152C108.438 47.056 102.934 49.008 97.1096 49.008C94.9336 49.008 93.1736 48.544 91.8296 47.616C89.4296 48.256 87.1256 48.576 84.9176 48.576C82.7096 48.576 80.9976 48.208 79.7816 47.472C78.5656 46.768 77.9576 45.856 77.9576 44.736C77.9576 43.136 79.0776 41.52 81.3176 39.888C83.5896 38.256 86.6936 37.072 90.6296 36.336C91.7496 34.256 93.3336 32.544 95.3816 31.2C97.4616 29.856 99.8136 29.184 102.438 29.184C104.07 29.184 105.286 29.536 106.086 30.24C106.886 30.912 107.286 31.824 107.286 32.976C107.286 34.128 106.95 35.344 106.278 36.624C109.318 37.488 111.766 38.896 113.622 40.848C115.958 38.544 118.79 35.168 122.118 30.72C121.222 30.784 120.518 30.816 120.006 30.816C116.326 30.816 113.526 29.984 111.606 28.32C109.718 26.624 108.774 24.512 108.774 21.984C108.774 18.688 110.262 15.696 113.238 13.008C116.246 10.288 120.198 8.928 125.094 8.928C126.182 8.928 127.19 8.992 128.118 9.12L127.878 9.792C126.662 9.632 125.622 9.552 124.758 9.552C120.246 9.552 116.614 10.816 113.862 13.344C111.142 15.84 109.782 18.64 109.782 21.744C109.782 24.176 110.678 26.208 112.47 27.84C114.294 29.44 116.934 30.24 120.39 30.24ZM121.965 46.896C123.181 46.896 124.797 46.288 126.813 45.072C128.861 43.824 130.557 42.624 131.901 41.472C133.277 40.32 133.965 39.648 133.965 39.456C133.965 39.264 133.725 39.104 133.245 38.976C132.797 38.848 132.173 38.784 131.373 38.784C130.573 38.784 129.517 39.104 128.205 39.744C126.893 40.352 125.757 41.088 124.797 41.952C123.837 42.816 123.037 43.664 122.397 44.496C121.757 45.328 121.437 45.936 121.437 46.32C121.437 46.704 121.613 46.896 121.965 46.896ZM134.829 38.832C135.469 38.32 135.821 38.064 135.885 38.064C136.749 38.16 137.197 38.24 137.229 38.304C137.261 38.336 137.277 38.384 137.277 38.448C137.277 38.512 137.149 38.72 136.893 39.072C136.637 39.392 135.885 40.176 134.637 41.424C131.533 44.464 129.981 46.304 129.981 46.944C129.981 47.2 130.093 47.328 130.317 47.328C131.853 47.328 134.733 45.872 138.957 42.96L139.053 43.68C134.797 46.464 131.789 47.856 130.029 47.856C129.165 47.856 128.733 47.456 128.733 46.656C128.733 45.824 129.229 44.752 130.221 43.44C126.445 46.224 123.501 47.632 121.389 47.664C120.621 47.664 120.237 47.2 120.237 46.272C120.237 44.608 121.293 42.832 123.405 40.944C125.549 39.056 128.365 38.112 131.853 38.112C133.005 38.112 133.997 38.352 134.829 38.832ZM143.535 40.704C141.999 41.792 140.383 42.864 138.687 43.92L138.543 43.248L143.103 40.08C144.671 38.96 145.871 38.4 146.703 38.4C147.535 38.4 147.951 38.752 147.951 39.456C147.951 40.512 147.215 41.776 145.743 43.248L146.559 42.768C150.943 39.92 153.679 38.496 154.767 38.496C155.855 38.496 156.399 38.784 156.399 39.36C156.399 40 155.887 41.008 154.863 42.384C158.511 39.856 161.439 38.592 163.647 38.592C164.511 38.592 164.943 38.96 164.943 39.696C164.943 40.432 164.623 41.2 163.983 42C163.343 42.768 162.639 43.44 161.871 44.016C159.823 45.488 158.799 46.416 158.799 46.8C158.799 47.024 158.975 47.136 159.327 47.136C159.711 47.136 160.335 46.944 161.199 46.56C162.063 46.176 162.831 45.792 163.503 45.408C164.175 44.992 164.975 44.496 165.903 43.92C166.863 43.312 167.375 42.992 167.439 42.96L167.535 43.68C163.215 46.56 160.191 48 158.463 48C157.631 48 157.215 47.6 157.215 46.8C157.215 46.256 157.551 45.616 158.223 44.88C158.927 44.112 159.679 43.408 160.479 42.768C162.687 41.104 163.791 40 163.791 39.456C163.791 39.296 163.615 39.216 163.263 39.216C162.079 39.216 160.319 39.856 157.983 41.136C155.647 42.416 153.055 44.496 150.207 47.376C150.015 47.568 149.599 47.664 148.959 47.664C148.351 47.664 148.047 47.52 148.047 47.232C148.047 47.104 148.607 46.512 149.727 45.456C153.151 42.224 154.863 40.256 154.863 39.552C154.863 39.36 154.751 39.264 154.527 39.264C153.791 39.264 152.175 40.08 149.679 41.712C147.215 43.312 144.687 45.184 142.095 47.328C141.711 47.552 141.407 47.664 141.183 47.664C140.191 47.664 139.695 47.552 139.695 47.328C139.695 47.2 140.127 46.752 140.991 45.984C141.887 45.216 143.071 44.064 144.543 42.528C146.047 40.96 146.799 39.872 146.799 39.264C146.799 39.136 146.719 39.072 146.559 39.072C145.983 39.072 144.975 39.616 143.535 40.704ZM177.269 38.736C177.269 38.48 177.013 38.352 176.501 38.352C175.989 38.352 174.949 38.848 173.381 39.84C171.813 40.8 170.485 41.84 169.397 42.96C171.541 42.608 173.381 41.968 174.917 41.04C176.485 40.08 177.269 39.312 177.269 38.736ZM167.861 45.504C167.861 46.432 168.501 46.896 169.781 46.896C172.213 46.896 175.237 45.584 178.853 42.96L178.949 43.68C175.173 46.336 171.941 47.664 169.253 47.664C167.333 47.664 166.373 46.864 166.373 45.264C166.373 43.664 167.557 42 169.925 40.272C172.325 38.544 174.789 37.68 177.317 37.68C178.117 37.68 178.517 37.92 178.517 38.4C178.517 39.168 177.621 40.096 175.829 41.184C174.069 42.24 171.749 43.024 168.869 43.536C168.197 44.304 167.861 44.96 167.861 45.504ZM185.346 39.984L187.602 39.696C187.986 39.696 188.29 39.824 188.514 40.08C188.738 40.336 188.85 40.64 188.85 40.992C188.85 41.696 188.354 42.464 187.362 43.296C186.37 44.128 185.378 44.912 184.386 45.648C183.426 46.384 182.946 46.976 182.946 47.424C182.946 47.68 183.154 47.808 183.57 47.808C184.946 47.808 187.042 47.008 189.858 45.408C191.074 44.736 192.37 43.92 193.746 42.96L193.842 43.68C192.754 44.384 191.538 45.104 190.194 45.84C189.426 46.32 188.306 46.864 186.834 47.472C185.362 48.112 184.146 48.432 183.186 48.432C182.226 48.432 181.746 48 181.746 47.136C181.746 46.144 182.258 45.216 183.282 44.352C184.306 43.456 185.314 42.72 186.306 42.144C187.33 41.536 187.842 41.072 187.842 40.752C187.842 40.656 187.73 40.608 187.506 40.608L184.818 40.848C184.306 40.848 183.842 40.8 183.426 40.704C181.89 41.792 180.274 42.864 178.578 43.92L178.434 43.248L182.994 40.08C183.026 39.472 183.41 38.864 184.146 38.256C184.882 37.648 185.506 37.344 186.018 37.344C186.53 37.344 186.786 37.488 186.786 37.776C186.786 38.032 186.482 38.368 185.874 38.784C185.266 39.2 184.962 39.504 184.962 39.696C184.962 39.888 185.09 39.984 185.346 39.984ZM212.781 26.976L212.397 26.592C213.741 26.144 214.925 25.472 215.949 24.576C217.005 23.648 217.533 22.72 217.533 21.792C217.053 21.536 216.813 21.216 216.813 20.832C216.813 20.416 217.069 20.016 217.581 19.632C218.125 19.248 218.637 19.056 219.117 19.056C219.597 19.056 219.837 19.28 219.837 19.728C219.837 20.688 219.069 22.016 217.533 23.712C215.997 25.408 214.413 26.496 212.781 26.976ZM222.267 37.152C222.395 36.96 222.539 36.864 222.699 36.864C222.891 36.864 222.987 36.96 222.987 37.152C222.987 37.344 222.891 37.536 222.699 37.728C222.507 37.92 222.363 38.512 222.267 39.504C222.203 40.464 221.963 41.648 221.547 43.056C221.131 44.432 220.411 45.68 219.387 46.8C219.387 46.864 219.451 46.896 219.579 46.896C219.803 46.896 220.619 46.512 222.027 45.744L222.699 45.408C223.915 44.736 225.211 43.92 226.587 42.96L226.683 43.68C221.691 46.912 217.867 48.528 215.211 48.528C214.155 48.528 213.387 48.304 212.907 47.856C212.395 47.408 212.139 46.912 212.139 46.368C212.139 45.824 212.267 45.392 212.523 45.072C212.779 44.72 213.099 44.544 213.483 44.544C213.963 44.544 214.203 44.8 214.203 45.312C214.203 45.632 213.947 45.92 213.435 46.176C213.275 46.272 213.195 46.432 213.195 46.656C213.195 46.88 213.387 47.136 213.771 47.424C214.123 47.744 214.507 47.904 214.923 47.904C216.331 47.904 217.531 47.024 218.523 45.264C219.547 43.472 220.203 41.696 220.491 39.936V39.792C217.387 41.904 215.291 43.28 214.203 43.92L214.059 43.248C219.275 39.888 222.011 37.856 222.267 37.152ZM258.284 29.856C256.076 29.856 254.06 30.448 252.236 31.632C250.444 32.816 249.004 34.336 247.916 36.192C250.124 35.808 252.396 35.616 254.732 35.616C257.1 35.616 259.276 35.824 261.26 36.24C261.932 34.96 262.268 33.84 262.268 32.88C262.268 30.864 260.94 29.856 258.284 29.856ZM235.436 44.832C235.436 45.792 235.948 46.56 236.972 47.136C238.028 47.744 239.532 48.048 241.484 48.048C243.468 48.048 245.5 47.712 247.58 47.04C246.204 45.856 245.516 44.288 245.516 42.336C245.516 40.384 245.932 38.576 246.764 36.912C243.34 37.68 240.588 38.832 238.508 40.368C236.46 41.904 235.436 43.392 235.436 44.832ZM254.012 48.384C259.228 48.384 264.268 46.144 269.132 41.664C267.692 39.712 265.436 38.24 262.364 37.248C261.212 39.296 259.484 41.248 257.18 43.104C254.876 44.928 252.236 46.32 249.26 47.28C250.508 48.016 252.092 48.384 254.012 48.384ZM247.628 36.72C246.732 38.448 246.284 40.272 246.284 42.192C246.284 44.112 247.004 45.648 248.444 46.8C251.132 45.808 253.596 44.384 255.836 42.528C258.076 40.672 259.772 38.768 260.924 36.816C258.844 36.336 256.668 36.096 254.396 36.096C252.124 36.096 249.868 36.304 247.628 36.72ZM296.108 13.584C295.116 14.352 294.252 15.056 293.516 15.696C292.812 16.336 291.9 17.344 290.78 18.72C289.66 20.096 288.796 21.168 288.188 21.936C287.612 22.704 286.668 23.984 285.356 25.776C284.076 27.536 283.164 28.784 282.62 29.52C286.204 28.688 289.724 27.216 293.18 25.104C296.668 22.96 299.404 20.8 301.388 18.624C303.404 16.416 304.412 14.624 304.412 13.248C304.412 12.064 303.484 11.472 301.628 11.472C299.772 11.472 297.932 12.176 296.108 13.584ZM276.812 30.24C277.772 30.24 278.508 30.208 279.02 30.144C283.116 24.544 286.108 20.736 287.996 18.72C292.764 13.536 297.5 10.944 302.204 10.944C304.124 10.944 305.084 11.664 305.084 13.104C305.084 14.256 304.46 15.68 303.212 17.376C301.996 19.04 300.38 20.72 298.364 22.416C296.38 24.112 293.916 25.696 290.972 27.168C288.06 28.608 285.1 29.632 282.092 30.24C278.156 35.52 274.508 39.536 271.148 42.288C271.98 43.568 272.396 44.896 272.396 46.272C272.396 48.736 271.084 50.976 268.46 52.992C265.868 55.04 262.028 56.448 256.94 57.216V56.688C261.388 55.984 264.796 54.64 267.164 52.656C269.532 50.704 270.716 48.528 270.716 46.128C270.716 45.136 270.492 44.144 270.044 43.152C264.86 47.056 259.356 49.008 253.532 49.008C251.356 49.008 249.596 48.544 248.252 47.616C245.852 48.256 243.548 48.576 241.34 48.576C239.132 48.576 237.42 48.208 236.204 47.472C234.988 46.768 234.38 45.856 234.38 44.736C234.38 43.136 235.5 41.52 237.74 39.888C240.012 38.256 243.116 37.072 247.052 36.336C248.172 34.256 249.756 32.544 251.804 31.2C253.884 29.856 256.236 29.184 258.86 29.184C260.492 29.184 261.708 29.536 262.508 30.24C263.308 30.912 263.708 31.824 263.708 32.976C263.708 34.128 263.372 35.344 262.7 36.624C265.74 37.488 268.188 38.896 270.044 40.848C272.38 38.544 275.212 35.168 278.54 30.72C277.644 30.784 276.94 30.816 276.428 30.816C272.748 30.816 269.948 29.984 268.028 28.32C266.14 26.624 265.196 24.512 265.196 21.984C265.196 18.688 266.684 15.696 269.66 13.008C272.668 10.288 276.62 8.928 281.516 8.928C282.604 8.928 283.612 8.992 284.54 9.12L284.3 9.792C283.084 9.632 282.044 9.552 281.18 9.552C276.668 9.552 273.036 10.816 270.284 13.344C267.564 15.84 266.204 18.64 266.204 21.744C266.204 24.176 267.1 26.208 268.892 27.84C270.716 29.44 273.356 30.24 276.812 30.24ZM282.947 38.304C283.107 38.176 283.539 38.144 284.243 38.208C284.595 38.272 284.771 38.352 284.771 38.448C284.771 38.512 284.691 38.64 284.531 38.832C284.371 39.024 283.603 39.792 282.227 41.136C279.379 43.92 277.955 45.664 277.955 46.368C277.955 46.528 278.051 46.608 278.243 46.608C279.331 46.608 283.283 44.304 290.099 39.696L291.395 38.64C291.555 38.512 291.859 38.464 292.307 38.496C292.755 38.528 292.979 38.688 292.979 38.976C292.979 39.104 292.931 39.216 292.835 39.312C288.355 43.344 286.115 45.776 286.115 46.608C286.115 46.96 286.371 47.136 286.883 47.136C287.395 47.136 288.083 46.944 288.947 46.56C289.811 46.176 290.579 45.792 291.251 45.408C291.923 44.992 292.723 44.496 293.651 43.92C294.611 43.312 295.123 42.992 295.187 42.96L295.283 43.68C293.811 44.64 292.131 45.6 290.243 46.56C288.355 47.52 286.915 48 285.923 48C284.963 48 284.483 47.6 284.483 46.8C284.483 45.68 285.347 44.224 287.075 42.432C282.051 45.696 278.947 47.328 277.763 47.328C277.059 47.328 276.707 46.912 276.707 46.08C276.707 44.32 278.787 41.728 282.947 38.304ZM301.69 39.984L303.946 39.696C304.33 39.696 304.634 39.824 304.858 40.08C305.082 40.336 305.194 40.64 305.194 40.992C305.194 41.696 304.698 42.464 303.706 43.296C302.714 44.128 301.722 44.912 300.73 45.648C299.77 46.384 299.29 46.976 299.29 47.424C299.29 47.68 299.498 47.808 299.914 47.808C301.29 47.808 303.386 47.008 306.202 45.408C307.418 44.736 308.714 43.92 310.09 42.96L310.186 43.68C309.098 44.384 307.882 45.104 306.538 45.84C305.77 46.32 304.65 46.864 303.178 47.472C301.706 48.112 300.49 48.432 299.53 48.432C298.57 48.432 298.09 48 298.09 47.136C298.09 46.144 298.602 45.216 299.626 44.352C300.65 43.456 301.658 42.72 302.65 42.144C303.674 41.536 304.186 41.072 304.186 40.752C304.186 40.656 304.074 40.608 303.85 40.608L301.162 40.848C300.65 40.848 300.186 40.8 299.77 40.704C298.234 41.792 296.618 42.864 294.922 43.92L294.778 43.248L299.338 40.08C299.37 39.472 299.754 38.864 300.49 38.256C301.226 37.648 301.85 37.344 302.362 37.344C302.874 37.344 303.13 37.488 303.13 37.776C303.13 38.032 302.826 38.368 302.218 38.784C301.61 39.2 301.306 39.504 301.306 39.696C301.306 39.888 301.434 39.984 301.69 39.984ZM310.213 46.704C311.333 46.704 312.853 46.144 314.773 45.024C316.725 43.872 318.405 42.72 319.813 41.568C321.221 40.384 321.925 39.696 321.925 39.504C321.925 39.28 321.685 39.104 321.205 38.976C320.757 38.848 320.309 38.784 319.861 38.784C318.549 38.784 317.061 39.296 315.397 40.32C313.765 41.344 312.405 42.448 311.317 43.632C310.261 44.816 309.733 45.696 309.733 46.272C309.733 46.56 309.893 46.704 310.213 46.704ZM295.765 60.096C294.901 60.768 294.277 61.408 293.893 62.016C293.509 62.656 293.317 63.328 293.317 64.032C293.317 64.736 293.669 65.088 294.373 65.088C296.101 65.088 301.173 60.8 309.589 52.224C303.925 54.944 300.421 56.768 299.077 57.696C297.701 58.624 296.597 59.424 295.765 60.096ZM322.837 38.832C323.349 38.32 323.685 38.064 323.845 38.064C324.037 38.064 324.309 38.112 324.661 38.208C325.045 38.304 325.237 38.416 325.237 38.544C325.237 38.64 325.109 38.8 324.853 39.024C324.597 39.248 321.253 42.576 314.821 49.008C319.045 46.896 322.597 44.88 325.477 42.96L325.573 43.68C324.133 44.512 323.109 45.136 322.501 45.552C320.773 46.608 317.765 48.208 313.477 50.352C308.837 55.024 304.853 58.752 301.525 61.536C298.165 64.352 295.669 65.76 294.037 65.76C293.109 65.76 292.645 65.232 292.645 64.176C292.645 63.12 293.125 62.032 294.085 60.912C295.045 59.824 296.469 58.704 298.357 57.552C301.333 55.76 305.317 53.648 310.309 51.216C310.533 51.12 310.709 51.04 310.837 50.976C311.381 50.432 312.245 49.52 313.429 48.24C314.645 46.96 315.445 46.128 315.829 45.744C316.213 45.36 316.501 45.072 316.693 44.88C317.109 44.432 317.477 44.064 317.797 43.776C314.245 46.208 311.525 47.44 309.637 47.472C308.901 47.472 308.533 47.04 308.533 46.176C308.533 44.544 309.573 42.8 311.653 40.944C313.765 39.056 316.485 38.112 319.813 38.112C320.933 38.112 321.941 38.352 322.837 38.832ZM335.283 34.128C335.283 34.576 335.027 35.008 334.515 35.424C334.003 35.84 333.523 36.048 333.075 36.048C332.659 36.048 332.451 35.872 332.451 35.52C332.451 35.168 332.707 34.768 333.219 34.32C333.731 33.84 334.195 33.6 334.611 33.6C335.059 33.6 335.283 33.776 335.283 34.128ZM331.203 39.312C326.883 43.216 324.723 45.664 324.723 46.656C324.723 46.976 324.947 47.136 325.395 47.136C325.811 47.136 326.451 46.944 327.315 46.56C328.179 46.176 328.947 45.792 329.619 45.408C330.291 44.992 331.091 44.496 332.019 43.92C332.979 43.312 333.491 42.992 333.555 42.96L333.651 43.68C332.179 44.64 330.499 45.6 328.611 46.56C326.723 47.52 325.299 48 324.339 48C323.347 48 322.851 47.6 322.851 46.8C322.851 46.128 323.427 45.12 324.579 43.776C325.731 42.4 326.883 41.2 328.035 40.176L329.763 38.64C329.923 38.512 330.227 38.464 330.675 38.496C331.123 38.528 331.347 38.688 331.347 38.976C331.347 39.104 331.299 39.216 331.203 39.312ZM334.082 45.792C334.082 46.624 334.674 47.04 335.858 47.04C337.074 47.04 338.626 46.656 340.514 45.888C342.402 45.088 344.146 44.112 345.746 42.96L345.842 43.68C344.178 44.896 342.306 45.904 340.226 46.704C338.178 47.504 336.434 47.904 334.994 47.904C333.074 47.904 332.114 47.2 332.114 45.792C332.114 44.256 333.314 42.56 335.714 40.704C338.114 38.816 340.434 37.872 342.674 37.872C343.762 37.872 344.306 38.272 344.306 39.072C344.306 39.616 344.098 40.128 343.682 40.608C343.298 41.088 342.802 41.328 342.194 41.328C341.586 41.328 341.282 41.168 341.282 40.848C341.282 40.528 341.458 40.24 341.81 39.984C342.162 39.728 342.546 39.6 342.962 39.6C343.41 39.568 343.634 39.408 343.634 39.12C343.634 38.96 343.538 38.816 343.346 38.688C343.154 38.528 342.914 38.448 342.626 38.448C341.09 38.448 339.282 39.376 337.202 41.232C335.122 43.056 334.082 44.576 334.082 45.792ZM345.981 46.896C347.197 46.896 348.813 46.288 350.829 45.072C352.877 43.824 354.573 42.624 355.917 41.472C357.293 40.32 357.981 39.648 357.981 39.456C357.981 39.264 357.741 39.104 357.261 38.976C356.813 38.848 356.189 38.784 355.389 38.784C354.589 38.784 353.533 39.104 352.221 39.744C350.909 40.352 349.773 41.088 348.813 41.952C347.853 42.816 347.053 43.664 346.413 44.496C345.773 45.328 345.453 45.936 345.453 46.32C345.453 46.704 345.629 46.896 345.981 46.896ZM358.845 38.832C359.485 38.32 359.837 38.064 359.901 38.064C360.765 38.16 361.213 38.24 361.245 38.304C361.277 38.336 361.293 38.384 361.293 38.448C361.293 38.512 361.165 38.72 360.909 39.072C360.653 39.392 359.901 40.176 358.653 41.424C355.549 44.464 353.997 46.304 353.997 46.944C353.997 47.2 354.109 47.328 354.333 47.328C355.869 47.328 358.749 45.872 362.973 42.96L363.069 43.68C358.813 46.464 355.805 47.856 354.045 47.856C353.181 47.856 352.749 47.456 352.749 46.656C352.749 45.824 353.245 44.752 354.237 43.44C350.461 46.224 347.517 47.632 345.405 47.664C344.637 47.664 344.253 47.2 344.253 46.272C344.253 44.608 345.309 42.832 347.421 40.944C349.565 39.056 352.381 38.112 355.869 38.112C357.021 38.112 358.013 38.352 358.845 38.832ZM391.263 19.104C389.663 19.104 385.919 21.68 380.031 26.832C374.143 31.984 369.375 36.72 365.727 41.04C369.983 38.128 375.343 34.032 381.807 28.752C388.271 23.44 391.503 20.272 391.503 19.248C391.503 19.152 391.423 19.104 391.263 19.104ZM364.287 42.816C363.007 44.512 362.367 45.664 362.367 46.272C362.367 46.848 362.639 47.136 363.183 47.136C364.687 47.136 367.439 45.744 371.439 42.96L371.535 43.68C367.279 46.464 364.271 47.856 362.511 47.856C361.647 47.856 361.215 47.456 361.215 46.656C361.215 44.896 363.263 41.728 367.359 37.152C371.487 32.544 376.031 28.288 380.991 24.384C385.983 20.448 389.519 18.48 391.599 18.48C391.983 18.48 392.175 18.624 392.175 18.912C392.175 19.68 391.391 20.896 389.823 22.56C388.287 24.192 386.207 26.064 383.583 28.176C380.959 30.288 378.511 32.208 376.239 33.936C373.967 35.664 371.503 37.504 368.847 39.456C366.191 41.376 364.671 42.496 364.287 42.816ZM403.703 35.568C403.159 37.264 402.887 38.64 402.887 39.696C402.887 40.72 402.967 41.584 403.127 42.288C406.775 40.08 409.335 38.576 410.807 37.776C408.791 36.656 406.423 35.92 403.703 35.568ZM411.719 38.352L403.559 43.584C404.871 46.4 407.863 47.808 412.535 47.808C413.463 47.808 414.519 47.696 415.703 47.472C415.927 46.704 416.039 46.016 416.039 45.408C416.039 42.592 414.599 40.24 411.719 38.352ZM425.639 38.304C425.639 37.248 425.271 36.4 424.535 35.76C423.799 35.12 422.711 34.8 421.271 34.8C418.903 34.8 416.007 35.808 412.583 37.824C416.007 40 417.719 42.672 417.719 45.84C417.719 46.256 417.671 46.64 417.575 46.992C420.007 46.192 421.959 44.944 423.431 43.248C424.903 41.552 425.639 39.904 425.639 38.304ZM397.847 20.256C401.143 20.256 404.295 19.68 407.303 18.528C410.343 17.376 412.695 16.032 414.359 14.496C416.055 12.928 416.903 11.488 416.903 10.176C416.903 8.256 414.999 7.296 411.191 7.296C407.415 7.296 404.039 8.592 401.063 11.184C398.087 13.776 396.231 16.768 395.495 20.16C396.455 20.224 397.239 20.256 397.847 20.256ZM398.759 35.232C392.967 35.232 388.503 36.128 385.367 37.92C382.231 39.712 380.663 41.712 380.663 43.92C380.663 45.232 381.255 46.32 382.439 47.184C383.655 48.048 385.335 48.48 387.479 48.48C390.903 48.48 395.511 46.768 401.303 43.344C400.823 42.288 400.583 41.056 400.583 39.648C400.583 38.208 400.775 36.768 401.159 35.328C400.135 35.264 399.335 35.232 398.759 35.232ZM406.919 31.776C410.439 31.776 414.055 31.136 417.767 29.856C421.479 28.576 424.663 27.04 427.319 25.248C430.007 23.424 432.199 21.536 433.895 19.584C435.623 17.632 436.487 15.968 436.487 14.592C436.487 12.768 434.935 11.856 431.831 11.856C428.727 11.856 425.367 12.864 421.751 14.88C418.167 16.864 414.951 19.36 412.103 22.368C409.287 25.344 407.031 28.464 405.335 31.728C405.687 31.76 406.215 31.776 406.919 31.776ZM399.911 0L400.055 0.719999C396.471 1.328 393.447 2.896 390.983 5.424C388.519 7.952 387.287 10.544 387.287 13.2C387.287 14.896 387.879 16.368 389.063 17.616C390.279 18.832 392.119 19.632 394.583 20.016C395.415 16.4 397.415 13.216 400.583 10.464C403.783 7.712 407.495 6.336 411.719 6.336C413.703 6.336 415.191 6.672 416.183 7.344C417.207 7.984 417.719 8.848 417.719 9.936C417.719 12.336 415.751 14.752 411.815 17.184C407.911 19.584 403.127 20.784 397.463 20.784C396.503 20.784 395.799 20.768 395.351 20.736C395.255 21.408 395.207 22.064 395.207 22.704C395.207 24.816 395.815 26.656 397.031 28.224C398.279 29.76 400.167 30.8 402.695 31.344C403.879 28.848 405.479 26.416 407.495 24.048C409.511 21.68 411.799 19.536 414.359 17.616C416.919 15.664 419.783 14.096 422.951 12.912C426.151 11.728 429.399 11.136 432.695 11.136C436.023 11.136 437.687 12.208 437.687 14.352C437.687 15.856 436.791 17.648 434.999 19.728C433.239 21.776 430.951 23.76 428.135 25.68C425.351 27.6 421.991 29.232 418.055 30.576C414.119 31.888 410.231 32.544 406.391 32.544C405.751 32.544 405.271 32.528 404.951 32.496C404.567 33.328 404.231 34.144 403.943 34.944C406.983 35.36 409.559 36.16 411.671 37.344C415.799 35.2 419.271 34.128 422.087 34.128C423.655 34.128 424.839 34.496 425.639 35.232C426.471 35.936 426.887 36.88 426.887 38.064C426.887 39.856 426.023 41.712 424.295 43.632C422.599 45.52 420.311 46.88 417.431 47.712C416.695 50.112 414.871 52.208 411.959 54C409.047 55.824 405.607 56.736 401.639 56.736C400.007 56.736 398.279 56.544 396.455 56.16L396.935 55.728C398.151 55.952 399.431 56.064 400.775 56.064C404.263 56.064 407.351 55.296 410.039 53.76C412.727 52.256 414.535 50.384 415.463 48.144C414.119 48.368 412.919 48.48 411.863 48.48C407.031 48.48 403.735 47.152 401.975 44.496C396.599 47.568 391.671 49.104 387.191 49.104C384.759 49.104 382.823 48.576 381.383 47.52C379.943 46.496 379.223 45.232 379.223 43.728C379.223 41.36 380.919 39.248 384.311 37.392C387.735 35.536 392.679 34.608 399.143 34.608C399.655 34.608 400.391 34.64 401.351 34.704C401.703 33.68 402.023 32.832 402.311 32.16C399.591 31.584 397.559 30.464 396.215 28.8C394.903 27.136 394.247 25.168 394.247 22.896C394.247 22.064 394.311 21.312 394.439 20.64C391.495 20.288 389.287 19.456 387.815 18.144C386.375 16.8 385.655 15.2 385.655 13.344C385.655 10.592 386.999 7.888 389.687 5.232C392.407 2.544 395.815 0.799999 399.911 0ZM456.279 19.104C454.679 19.104 450.935 21.68 445.047 26.832C439.159 31.984 434.391 36.72 430.743 41.04C434.999 38.128 440.359 34.032 446.823 28.752C453.287 23.44 456.519 20.272 456.519 19.248C456.519 19.152 456.439 19.104 456.279 19.104ZM429.303 42.816C428.023 44.512 427.383 45.664 427.383 46.272C427.383 46.848 427.655 47.136 428.199 47.136C429.703 47.136 432.455 45.744 436.455 42.96L436.551 43.68C432.295 46.464 429.287 47.856 427.527 47.856C426.663 47.856 426.231 47.456 426.231 46.656C426.231 44.896 428.279 41.728 432.375 37.152C436.503 32.544 441.047 28.288 446.007 24.384C450.999 20.448 454.535 18.48 456.615 18.48C456.999 18.48 457.191 18.624 457.191 18.912C457.191 19.68 456.407 20.896 454.839 22.56C453.303 24.192 451.223 26.064 448.599 28.176C445.975 30.288 443.527 32.208 441.255 33.936C438.983 35.664 436.519 37.504 433.863 39.456C431.207 41.376 429.687 42.496 429.303 42.816ZM446.236 34.128C446.236 34.576 445.98 35.008 445.468 35.424C444.956 35.84 444.476 36.048 444.028 36.048C443.612 36.048 443.404 35.872 443.404 35.52C443.404 35.168 443.66 34.768 444.172 34.32C444.684 33.84 445.148 33.6 445.564 33.6C446.012 33.6 446.236 33.776 446.236 34.128ZM442.156 39.312C437.836 43.216 435.676 45.664 435.676 46.656C435.676 46.976 435.9 47.136 436.348 47.136C436.764 47.136 437.404 46.944 438.268 46.56C439.132 46.176 439.9 45.792 440.572 45.408C441.244 44.992 442.044 44.496 442.972 43.92C443.932 43.312 444.444 42.992 444.508 42.96L444.604 43.68C443.132 44.64 441.452 45.6 439.564 46.56C437.676 47.52 436.252 48 435.292 48C434.3 48 433.804 47.6 433.804 46.8C433.804 46.128 434.38 45.12 435.532 43.776C436.684 42.4 437.836 41.2 438.988 40.176L440.716 38.64C440.876 38.512 441.18 38.464 441.628 38.496C442.076 38.528 442.3 38.688 442.3 38.976C442.3 39.104 442.252 39.216 442.156 39.312ZM452.763 38.16C453.435 38.16 453.771 38.528 453.771 39.264C453.771 39.968 453.259 41.008 452.235 42.384C455.883 39.856 458.811 38.592 461.019 38.592C461.883 38.592 462.315 38.96 462.315 39.696C462.315 40.432 461.995 41.2 461.355 42C460.715 42.768 460.011 43.44 459.243 44.016C457.195 45.488 456.171 46.416 456.171 46.8C456.171 47.024 456.347 47.136 456.699 47.136C457.083 47.136 457.707 46.944 458.571 46.56C459.435 46.176 460.203 45.792 460.875 45.408C461.547 44.992 462.347 44.496 463.275 43.92C464.235 43.312 464.747 42.992 464.811 42.96L464.907 43.68C460.587 46.56 457.563 48 455.835 48C455.003 48 454.587 47.6 454.587 46.8C454.587 46.256 454.923 45.616 455.595 44.88C456.299 44.112 457.051 43.408 457.851 42.768C460.059 41.104 461.163 40 461.163 39.456C461.163 39.296 460.987 39.216 460.635 39.216C459.451 39.216 457.691 39.856 455.355 41.136C453.019 42.416 450.427 44.496 447.579 47.376C447.387 47.568 447.019 47.664 446.475 47.664C445.963 47.664 445.707 47.52 445.707 47.232C445.707 47.136 446.811 45.952 449.019 43.68C451.227 41.408 452.331 39.936 452.331 39.264C452.331 39.104 452.219 39.024 451.995 39.024C451.803 39.024 451.371 39.232 450.699 39.648C450.059 40.064 449.051 40.736 447.675 41.664C446.331 42.56 445.179 43.312 444.219 43.92L444.075 43.248C444.555 42.928 445.211 42.48 446.043 41.904C446.875 41.328 447.563 40.864 448.107 40.512C448.651 40.128 449.243 39.728 449.883 39.312C451.131 38.544 452.091 38.16 452.763 38.16ZM474.596 34.128C474.596 34.576 474.34 35.008 473.828 35.424C473.316 35.84 472.836 36.048 472.388 36.048C471.972 36.048 471.764 35.872 471.764 35.52C471.764 35.168 472.02 34.768 472.532 34.32C473.044 33.84 473.508 33.6 473.924 33.6C474.372 33.6 474.596 33.776 474.596 34.128ZM470.516 39.312C466.196 43.216 464.036 45.664 464.036 46.656C464.036 46.976 464.26 47.136 464.708 47.136C465.124 47.136 465.764 46.944 466.628 46.56C467.492 46.176 468.26 45.792 468.932 45.408C469.604 44.992 470.404 44.496 471.332 43.92C472.292 43.312 472.804 42.992 472.868 42.96L472.964 43.68C471.492 44.64 469.812 45.6 467.924 46.56C466.036 47.52 464.612 48 463.652 48C462.66 48 462.164 47.6 462.164 46.8C462.164 46.128 462.74 45.12 463.892 43.776C465.044 42.4 466.196 41.2 467.348 40.176L469.076 38.64C469.236 38.512 469.54 38.464 469.988 38.496C470.436 38.528 470.66 38.688 470.66 38.976C470.66 39.104 470.612 39.216 470.516 39.312ZM473.394 45.792C473.394 46.624 473.986 47.04 475.17 47.04C476.386 47.04 477.938 46.656 479.826 45.888C481.714 45.088 483.458 44.112 485.058 42.96L485.154 43.68C483.49 44.896 481.618 45.904 479.538 46.704C477.49 47.504 475.746 47.904 474.306 47.904C472.386 47.904 471.426 47.2 471.426 45.792C471.426 44.256 472.626 42.56 475.026 40.704C477.426 38.816 479.746 37.872 481.986 37.872C483.074 37.872 483.618 38.272 483.618 39.072C483.618 39.616 483.41 40.128 482.994 40.608C482.61 41.088 482.114 41.328 481.506 41.328C480.898 41.328 480.594 41.168 480.594 40.848C480.594 40.528 480.77 40.24 481.122 39.984C481.474 39.728 481.858 39.6 482.274 39.6C482.722 39.568 482.946 39.408 482.946 39.12C482.946 38.96 482.85 38.816 482.658 38.688C482.466 38.528 482.226 38.448 481.938 38.448C480.402 38.448 478.594 39.376 476.514 41.232C474.434 43.056 473.394 44.576 473.394 45.792Z" fill="black"/>
</svg>
